<svg xmlns="http://www.w3.org/2000/svg" xmlns:xlink="http://www.w3.org/1999/xlink" width="500" zoomAndPan="magnify" viewBox="0 0 375 374.999991" height="500" preserveAspectRatio="xMidYMid meet" version="1.0"><defs><g/><clipPath id="08f4a52652"><path d="M 101.167969 91.675781 L 286.8125 91.675781 L 286.8125 277.324219 L 101.167969 277.324219 Z M 101.167969 91.675781 " clip-rule="nonzero"/></clipPath><clipPath id="3605f3e149"><path d="M 193.992188 91.675781 C 142.726562 91.675781 101.167969 133.234375 101.167969 184.5 C 101.167969 235.765625 142.726562 277.324219 193.992188 277.324219 C 245.257812 277.324219 286.8125 235.765625 286.8125 184.5 C 286.8125 133.234375 245.257812 91.675781 193.992188 91.675781 Z M 193.992188 91.675781 " clip-rule="nonzero"/></clipPath><clipPath id="f8c4f8d2ac"><path d="M 130.347656 217.886719 L 167.097656 217.886719 L 167.097656 254.636719 L 130.347656 254.636719 Z M 130.347656 217.886719 " clip-rule="nonzero"/></clipPath><clipPath id="2f99c6d3f2"><path d="M 184.375 242.5625 L 209.125 242.5625 L 209.125 267.3125 L 184.375 267.3125 Z M 184.375 242.5625 " clip-rule="nonzero"/></clipPath><clipPath id="2b44fb47c4"><path d="M 228.761719 228.558594 L 244.511719 228.558594 L 244.511719 244.308594 L 228.761719 244.308594 Z M 228.761719 228.558594 " clip-rule="nonzero"/></clipPath><clipPath id="8e36a05833"><path d="M 228.761719 123.839844 L 244.511719 123.839844 L 244.511719 139.589844 L 228.761719 139.589844 Z M 228.761719 123.839844 " clip-rule="nonzero"/></clipPath><clipPath id="35f265bb85"><path d="M 148.882812 123.839844 L 164.632812 123.839844 L 164.632812 139.589844 L 148.882812 139.589844 Z M 148.882812 123.839844 " clip-rule="nonzero"/></clipPath><clipPath id="977da37205"><path d="M 183.351562 102.558594 L 204.351562 102.558594 L 204.351562 123.558594 L 183.351562 123.558594 Z M 183.351562 102.558594 " clip-rule="nonzero"/></clipPath></defs><rect x="-37.5" width="450" fill="#ffffff" y="-37.499999" height="449.999989" fill-opacity="1"/><rect x="-37.5" width="450" fill="#ffffff" y="-37.499999" height="449.999989" fill-opacity="1"/><g clip-path="url(#08f4a52652)"><g clip-path="url(#3605f3e149)"><path fill="#0097b2" d="M 101.167969 91.675781 L 286.8125 91.675781 L 286.8125 277.324219 L 101.167969 277.324219 Z M 101.167969 91.675781 " fill-opacity="1" fill-rule="nonzero"/></g></g><path stroke-linecap="butt" transform="matrix(1.174067, -0.106476, 0.106476, 1.174067, 92.530897, 161.941353)" fill="none" stroke-linejoin="miter" d="M 17.086763 47.636774 C 15.020424 47.639023 13.115986 47.21345 11.373152 46.363354 C 9.637217 45.510556 8.251589 44.280293 7.217167 42.662665 C 6.186345 41.042037 5.669623 39.035507 5.669704 36.649976 C 5.670224 33.525867 6.511742 30.960458 8.194256 28.95375 C 9.887269 26.94134 12.156157 25.806279 15.00362 25.555467 C 15.396001 25.521183 15.623958 25.355538 15.693792 25.062431 C 15.764824 24.756125 15.643575 24.515558 15.330944 24.330831 C 14.33065 23.767665 13.545397 22.96116 12.971885 21.911015 C 12.408573 20.858468 12.127497 19.555367 12.126257 17.991513 C 12.126685 15.822275 12.661158 13.927714 13.729076 12.314428 C 14.797891 10.691243 16.315575 9.438149 18.285725 8.552146 C 20.256474 7.659543 22.556409 7.209356 25.184633 7.211484 C 27.217674 7.209542 28.855089 7.497777 30.094177 8.069291 C 31.337164 8.634504 32.285895 9.362676 32.946671 10.257707 C 33.605044 11.142538 34.050133 12.067914 34.275636 13.029937 C 34.508337 13.985959 34.624318 14.834909 34.626281 15.583687 C 34.624568 17.363536 34.210296 18.813184 33.376863 19.932033 C 32.543431 21.050882 31.61088 21.611768 30.57621 21.611093 C 29.648037 21.610095 29.182669 21.238507 29.184006 20.490029 C 29.183752 19.318863 28.910238 18.299252 28.363465 17.431196 C 27.81729 16.55654 26.669428 16.116403 24.925879 16.117982 C 23.076132 16.116584 21.741575 16.597761 20.915609 17.560913 C 20.099542 18.524962 19.691483 19.575921 19.69143 20.713788 C 19.691023 21.598762 19.920384 22.37149 20.383114 23.02897 C 20.852144 23.690349 21.423733 24.17471 22.100582 24.488954 C 23.52464 24.488344 24.746786 24.402881 25.770918 24.226263 C 26.804651 24.053843 27.694106 23.968152 28.442884 23.966189 C 29.257961 23.966912 29.664299 24.659203 29.665799 26.036763 C 29.663719 28.884581 27.53499 30.308503 23.273014 30.30793 C 22.560835 30.309885 21.830935 30.213747 21.086315 30.023114 C 20.339293 29.822283 19.574235 29.45346 18.794441 28.916945 C 18.046002 29.098603 17.447315 29.53672 16.995079 30.230998 C 16.553042 30.922874 16.333009 31.661501 16.33198 32.443279 C 16.332242 33.651043 17.017331 34.608167 18.389946 35.321547 C 19.762861 36.031628 21.726682 36.38939 24.288607 36.388833 C 26.344748 36.388986 28.21542 36.049588 29.900324 35.373941 C 31.592127 34.695593 32.886674 33.70174 33.780663 32.392084 C 34.065562 31.965434 34.431818 31.815659 34.873432 31.935559 C 35.314746 32.058759 35.689186 32.295671 35.992855 32.652595 C 36.296823 33.006218 36.357499 33.364395 36.175482 33.720524 C 33.969113 38.165075 31.215939 41.595175 27.908463 44.020124 C 24.598883 46.431574 20.992651 47.638324 17.086763 47.636774 Z M 57.559473 32.39261 C 57.778397 32.069772 58.114962 31.953902 58.576367 32.038999 C 59.034173 32.127097 59.435604 32.323204 59.77406 32.626721 C 60.112516 32.930239 60.172594 33.295015 59.954293 33.72105 C 59.461639 34.787627 58.812698 35.889936 58.014368 37.025277 C 57.215739 38.163917 56.217875 39.114807 55.020776 39.877945 C 53.830276 40.641682 52.368202 41.024789 50.634852 41.023966 C 49.703379 41.022669 48.865446 40.760359 48.121652 40.230436 C 46.800008 42.146768 45.370298 43.750533 43.823222 45.034232 C 42.280045 46.311631 40.69173 46.949458 39.058277 46.947713 C 37.634218 46.948323 36.466556 46.50639 35.555589 45.618614 C 34.655121 44.725136 33.998188 43.567612 33.59169 42.143342 C 33.181892 40.718772 32.988355 39.14746 33.004481 37.428806 C 33.021205 35.703553 33.243433 34.023553 33.667566 32.391808 C 33.989754 31.003678 34.406736 29.597528 34.918512 28.173358 C 35.440187 26.750086 36.017986 25.441698 36.651309 24.254795 C 37.291532 23.06519 37.960005 22.114372 38.65343 21.402042 C 39.350155 20.690011 40.070957 20.336164 40.816435 20.333902 C 41.34532 20.335287 41.753343 20.495394 42.040205 20.817522 C 42.327366 21.13635 42.470282 21.688303 42.469252 22.470081 C 42.468569 23.468152 42.266911 24.554464 41.857978 25.725119 C 41.449044 26.895774 41.049113 28.077227 40.658483 29.266178 C 40.267853 30.455128 40.075505 31.585537 40.075137 32.653506 C 40.074454 33.651578 40.321221 34.452501 40.815139 35.059576 C 41.309655 35.660051 42.110997 35.958968 43.212265 35.959028 C 44.350132 35.959081 45.220953 35.711998 45.828028 35.21808 C 46.436001 34.714263 46.862491 34.267183 47.104199 33.876542 C 46.932127 33.059103 46.786453 32.244058 46.674079 31.428706 C 46.571904 30.610952 46.518024 29.774288 46.519337 28.916013 C 46.518097 27.352158 46.704979 25.915159 47.079983 24.605016 C 47.452585 23.284673 48.037638 22.226476 48.835441 21.427126 C 49.636244 20.631375 50.640828 20.230068 51.858493 20.230703 C 53.349149 20.229479 54.290358 20.857156 54.682719 22.107134 C 55.072677 23.346913 54.981251 25.052084 54.40844 27.222645 C 53.846426 29.384205 52.832397 31.870754 51.376251 34.683189 C 51.906381 34.890967 52.542385 34.995226 53.290864 34.996563 C 54.069641 34.993994 54.816575 34.792237 55.528966 34.384394 C 56.241356 33.976551 56.917092 33.312523 57.559473 32.39261 Z M 66.358997 47.001472 C 64.223059 47.000737 62.469805 46.522332 61.099237 45.566258 C 59.735867 44.604182 58.72342 43.33124 58.064596 41.754329 C 57.403669 40.163919 57.082599 38.421339 57.101985 36.51999 C 57.11807 34.618341 57.446748 32.718425 58.091615 30.81724 C 58.733183 28.915755 59.656178 27.176205 60.864199 25.595588 C 62.069518 24.008072 63.535899 22.73369 65.266041 21.779341 C 66.990182 20.817794 68.94032 20.335883 71.109557 20.336311 C 72.776609 20.334449 74.135637 20.647344 75.186943 21.271697 C 76.235547 21.889151 77.009104 22.714559 77.504314 23.747621 C 77.999525 24.780683 78.245757 25.880998 78.246012 27.052164 C 78.245991 28.336427 77.89018 29.618367 77.178879 30.894685 C 76.474177 32.171601 75.479936 33.229287 74.195856 34.071042 C 72.919274 34.903495 71.410709 35.322311 69.664159 35.320291 C 68.918682 35.322553 68.188191 35.269614 67.478989 35.165371 C 66.767385 35.050929 66.109753 34.818279 65.513293 34.461419 C 65.329676 34.358262 65.130481 34.353506 64.912108 34.450151 C 64.704832 34.534493 64.601384 34.758009 64.599061 35.113799 C 64.598961 36.032073 65.143899 36.736934 66.227873 37.221184 C 67.312445 37.698834 68.618359 37.937043 70.145315 37.939111 C 71.962062 37.937516 73.836908 37.478721 75.770152 36.559427 C 77.707594 35.630532 79.277746 34.239131 80.483309 32.392122 C 80.771508 31.965772 81.144664 31.813295 81.606077 31.934991 C 82.07409 32.057286 82.45513 32.294796 82.748899 32.650822 C 83.055868 33.008045 83.103344 33.365024 82.894927 33.718759 C 80.54154 38.060145 77.966832 41.35671 75.173505 43.615352 C 72.387076 45.871293 69.446807 46.9987 66.358997 47.001472 Z M 68.28663 31.322607 C 69.307801 31.325385 70.113205 30.992519 70.695345 30.333312 C 71.284084 29.674703 71.58093 29.006257 71.578983 28.330677 C 71.580053 27.731894 71.373847 27.217454 70.966666 26.791255 C 70.560084 26.358456 69.947455 26.143196 69.132378 26.142473 C 68.097708 26.141798 67.276702 26.463268 66.669359 27.106881 C 66.072216 27.748092 65.771172 28.426138 65.773427 29.135017 C 65.77205 29.700501 65.975554 30.208042 66.383641 30.66094 C 66.792625 31.103938 67.424755 31.324294 68.28663 31.322607 Z M 82.622125 46.999133 C 81.381061 46.999703 80.423408 46.626723 79.745865 45.879892 C 79.068322 45.133061 78.729431 44.210661 78.729791 43.106093 C 78.729221 41.865029 78.873478 40.311043 79.158965 38.447135 C 79.44475 36.579927 79.887398 34.560589 80.486609 32.392422 C 81.096334 30.29175 81.763687 28.326062 82.492267 26.492356 C 83.220547 24.661951 83.967203 23.179231 84.732533 22.040898 C 85.497864 20.902564 86.218019 20.335724 86.893599 20.333777 C 87.605479 20.335122 88.072909 20.537215 88.298592 20.946954 C 88.534474 21.354291 88.651273 21.827351 88.652291 22.366436 C 88.652514 23.391206 88.897445 24.028934 89.393685 24.280219 C 89.896526 24.532102 90.57294 24.227464 91.425928 23.369903 C 92.424391 22.412414 93.4499 21.670312 94.509354 21.140897 C 95.579307 20.605779 96.701815 20.334943 97.882881 20.335586 C 99.513333 20.333731 100.720603 20.815855 101.501391 21.781657 C 102.283375 22.734259 102.674216 23.890941 102.67451 25.245101 C 102.67441 26.163375 102.531498 27.005481 102.242772 27.767822 C 101.966947 28.53466 101.683017 29.2808 101.397284 30.010141 C 101.111551 30.739482 100.968331 31.54829 100.967026 32.443164 C 100.968613 34.223312 101.822882 35.1126 103.533132 35.111328 C 104.348209 35.112051 105.030034 34.85781 105.578906 34.345305 C 106.131977 33.8232 106.676619 33.173901 107.203534 32.389909 C 107.491433 31.966858 107.864589 31.814382 108.326002 31.936078 C 108.794015 32.058372 109.175056 32.295882 109.468825 32.651908 C 109.772494 33.008832 109.823569 33.36281 109.614853 33.719845 C 109.256788 34.292907 108.828881 35.122476 108.324532 36.207954 C 107.83098 37.28443 107.233949 38.438027 106.540037 39.669342 C 105.846723 40.894057 105.035202 42.0648 104.105172 43.18487 C 103.185043 44.305838 102.147272 45.219837 100.99456 45.933767 C 99.838848 46.644098 98.532164 47.001372 97.075106 46.998989 C 95.408055 47.000852 94.237068 46.448822 93.558548 45.345902 C 92.883328 44.243281 92.545255 42.944992 92.544031 41.454335 C 92.543736 40.100175 92.73065 38.809572 93.104473 37.585826 C 93.478296 36.36208 93.849441 35.241232 94.22421 34.227179 C 94.595678 33.212828 94.783885 32.348212 94.78523 31.636332 C 94.782999 31.03725 94.598405 30.578004 94.224846 30.257994 C 93.851587 29.934685 93.360466 29.773696 92.751484 29.775029 C 91.726713 29.775252 90.778836 30.211645 89.900652 31.090211 C 89.033566 31.956475 88.328832 33.086995 87.79035 34.475472 C 87.262666 35.854947 86.997498 37.348061 86.998148 38.955115 L 86.997169 41.350545 C 86.996762 42.23552 86.890456 43.114217 86.671053 43.99264 C 86.462748 44.85876 86.048017 45.579729 85.42356 46.155248 C 84.797 46.717268 83.863189 46.998563 82.622125 46.999133 Z M 111.371492 47.001278 C 109.375349 46.999913 107.903759 46.387351 106.95672 45.163592 C 106.020479 43.930832 105.550045 42.33108 105.552615 40.358337 C 105.551587 38.388594 105.943514 36.26817 106.722096 33.993167 C 107.190988 32.638304 107.709056 31.181434 108.2733 29.618956 C 108.845041 28.047177 109.465951 26.336792 110.136029 24.4878 C 109.353952 24.49007 108.760525 24.283205 108.351548 23.876806 C 107.942871 23.467106 107.673375 22.990179 107.54336 22.442723 C 107.420543 21.889266 107.421038 21.40688 107.544545 20.998865 C 107.674653 20.591448 107.899602 20.385605 108.222093 20.388235 C 109.782647 20.386696 111.006517 19.952042 111.893703 19.084274 C 112.785086 18.206905 113.410369 17.292096 113.76655 16.336246 C 114.410592 14.774351 115.02896 13.789045 115.628254 13.380927 C 116.238046 12.967106 116.879381 12.755773 117.554662 12.757126 C 118.552733 12.757809 119.173506 13.176761 119.416383 14.020584 C 119.670356 14.852105 119.387137 16.10403 118.570623 17.770059 C 118.179922 18.629619 117.964669 19.278847 117.920967 19.724044 C 117.884164 20.166539 118.120306 20.387581 118.622791 20.386572 L 121.397411 20.388668 C 121.7535 20.387691 121.983648 20.638134 122.087555 21.143296 C 122.19236 21.638559 122.180784 22.206445 122.059427 22.847553 C 121.938668 23.482061 121.710799 24.050294 121.372218 24.555253 C 121.031535 25.046713 120.593002 25.296401 120.057517 25.294418 C 118.423765 25.295973 117.216914 25.359534 116.436365 25.4917 C 115.653414 25.613667 115.103297 25.919777 114.782114 26.416333 C 114.461231 26.909588 114.124227 27.764037 113.767801 28.979379 C 113.194021 30.830451 113.273239 32.304891 114.001858 33.4057 C 114.731074 34.49991 115.87926 35.046544 117.453014 35.046202 C 118.520984 35.046569 119.470705 34.809969 120.302477 34.333102 C 121.137848 33.853234 121.818688 33.206305 122.348295 32.392613 C 122.633194 31.965964 122.99975 31.812889 123.441064 31.936089 C 123.892577 32.056887 124.266719 32.297099 124.560488 32.653125 C 124.864456 33.006748 124.928432 33.365224 124.756614 33.718951 C 124.435156 34.328603 124.00665 35.164772 123.467198 36.233759 C 122.938844 37.290443 122.298314 38.446749 121.552807 39.696675 C 120.808199 40.936701 119.933379 42.108357 118.934948 43.212242 C 117.946717 44.313726 116.819846 45.219644 115.550738 45.933 C 114.291829 46.643953 112.898747 47.000046 111.371492 47.001278 Z M 125.658277 46.99937 C 123.774932 47.00158 122.458456 46.476281 121.712149 45.423774 C 120.965542 44.374567 120.591768 43.066386 120.593529 41.506131 C 120.593234 40.15197 120.760308 38.676577 121.101651 37.077249 C 121.439393 35.480922 121.873741 33.919972 122.401693 32.390802 C 124.216412 27.202057 125.752619 22.84645 127.012719 19.334177 C 128.277315 15.809004 129.496801 13.148116 130.671176 11.351513 C 131.842251 9.55461 133.138018 8.657354 134.562077 8.656744 C 135.666645 8.657104 136.360915 9.072741 136.644588 9.906955 C 136.931861 10.738168 136.664842 11.99489 135.837531 13.669921 C 134.388914 16.619451 133.139745 19.350844 132.090621 21.857499 C 131.037897 24.367155 130.210438 26.740867 129.601343 28.981334 C 129.315673 30.003467 129.113094 30.989882 128.990603 31.936981 C 128.869011 32.874181 128.986173 33.636733 129.341792 34.227939 C 129.69741 34.819144 130.409353 35.113281 131.477323 35.113648 C 132.398896 35.114048 133.20582 34.874479 133.898096 34.394942 C 134.59427 33.909105 135.223806 33.240887 135.786705 32.39029 C 136.074605 31.967239 136.447761 31.814763 136.905874 31.936159 C 137.373887 32.058454 137.758227 32.296263 138.051996 32.652289 C 138.355665 33.009213 138.403441 33.362892 138.194725 33.719927 C 137.83996 34.293288 137.408753 35.122558 136.908003 36.205035 C 136.411151 37.281212 135.81712 38.438408 135.123208 39.669723 C 134.429895 40.894438 133.618373 42.065181 132.688344 43.185251 C 131.768214 44.306219 130.730443 45.220218 129.578031 45.930848 C 128.42202 46.644479 127.115635 46.998453 125.658277 46.99937 Z M 162.296937 32.392322 C 162.505661 32.071886 162.839226 31.952416 163.300331 32.040814 C 163.768337 32.126509 164.173068 32.322915 164.511524 32.626433 C 164.84998 32.929951 164.910058 33.294727 164.691757 33.720762 C 163.910936 35.360084 163.156806 36.961902 162.426367 38.522616 C 161.698928 40.086929 160.927661 41.510855 160.109264 42.794096 C 159.294765 44.071036 158.387213 45.090004 157.389608 45.854599 C 156.392004 46.619194 155.253019 46.998331 153.978656 46.999208 C 153.196579 47.001478 152.576712 46.609224 152.115156 45.828747 C 150.977786 49.491889 149.786858 52.424863 148.535474 54.630371 C 147.29429 56.833477 145.908378 58.431233 144.381337 59.420636 C 142.853399 60.41994 141.091358 60.918908 139.095216 60.917543 C 136.293598 60.919652 134.1182 60.180047 132.571724 58.705626 C 131.018648 57.230607 130.243631 55.210634 130.242774 52.652009 C 130.241881 51.304448 130.437222 50.141039 130.828798 49.161782 C 131.220673 48.179225 131.666592 47.407851 132.170155 46.844658 C 132.664716 46.270667 133.107123 45.904881 133.497078 45.750601 C 133.887931 45.58642 134.102138 45.645772 134.136099 45.931656 C 134.282482 47.252486 134.832902 48.337135 135.790659 49.185902 C 136.751417 50.038268 138.048668 50.445374 139.682113 50.41052 C 141.24566 50.375981 142.694219 49.921779 144.03139 49.044913 C 145.367962 48.174647 146.468077 47.013442 147.338935 45.555295 C 148.206492 44.096848 148.732333 42.517579 148.913457 40.813889 C 148.981723 40.207892 148.822655 39.870737 148.42995 39.798524 C 148.040247 39.729911 147.703123 40.035375 147.415578 40.711318 C 146.702585 42.483222 145.707218 43.883498 144.42228 44.918148 C 143.144242 45.950096 141.640198 46.465808 139.903548 46.464686 C 138.479489 46.465296 137.244323 45.997278 136.19145 45.060034 C 135.142774 44.11319 134.615666 42.624748 134.616724 40.595306 C 134.617746 39.77693 134.677497 38.64115 134.799876 37.181665 C 134.928556 35.72608 135.259699 34.129154 135.790005 32.390589 C 137.039818 28.47813 138.292231 25.490845 139.550247 23.432331 C 140.808861 21.367217 142.186796 20.334347 143.680454 20.336722 C 144.782021 20.333482 145.33296 21.045542 145.33357 22.4696 C 145.333517 23.607467 145.128875 24.763378 144.719941 25.934033 C 144.314308 27.104988 143.914369 28.249841 143.523124 29.372194 C 143.132179 30.491247 142.936523 31.584757 142.936155 32.652727 C 142.938417 33.398204 143.08824 33.984055 143.392224 34.410876 C 143.696508 34.834398 144.289337 35.047863 145.177611 35.048569 C 146.348777 35.048315 147.291575 34.704619 148.002406 34.020485 C 148.714433 33.32315 149.281506 32.353155 149.707522 31.104198 C 150.808632 27.62076 151.92852 24.957493 153.067784 23.107799 C 154.203749 21.257805 155.448512 20.335961 156.802673 20.335667 C 157.58475 20.333397 158.180572 20.513862 158.587438 20.870163 C 158.994603 21.223164 159.199328 21.827302 159.198613 22.678977 C 159.198553 23.780245 158.851752 25.109582 158.158511 26.663688 C 157.472767 28.208493 156.664752 30.331107 155.734766 33.028231 C 155.309703 34.52348 155.28533 35.562655 155.657448 36.155357 C 156.030763 36.734859 156.520113 37.025444 157.128795 37.027412 C 157.943872 37.028134 158.814039 36.531459 159.732097 35.543388 C 160.661252 34.543015 161.515099 33.49256 162.296937 32.392322 Z M 162.296937 32.392322 " stroke="#5b4f47" stroke-width="3.999998" stroke-opacity="1" stroke-miterlimit="4"/><g fill="#f6f1e3" fill-opacity="1"><g transform="translate(103.442283, 216.586787)"><g><path d="M 14.203125 -0.53125 C 11.785156 -0.3125 9.507812 -0.609375 7.375 -1.421875 C 5.25 -2.234375 3.492188 -3.535156 2.109375 -5.328125 C 0.722656 -7.117188 -0.0976562 -9.414062 -0.359375 -12.21875 C -0.691406 -15.882812 0.0234375 -18.988281 1.796875 -21.53125 C 3.566406 -24.070312 6.109375 -25.640625 9.421875 -26.234375 C 9.890625 -26.316406 10.144531 -26.535156 10.1875 -26.890625 C 10.238281 -27.253906 10.070312 -27.523438 9.6875 -27.703125 C 8.445312 -28.273438 7.4375 -29.144531 6.65625 -30.3125 C 5.875 -31.476562 5.398438 -32.976562 5.234375 -34.8125 C 5.003906 -37.363281 5.429688 -39.644531 6.515625 -41.65625 C 7.597656 -43.675781 9.25 -45.3125 11.46875 -46.5625 C 13.6875 -47.8125 16.34375 -48.578125 19.4375 -48.859375 C 21.8125 -49.078125 23.757812 -48.914062 25.28125 -48.375 C 26.8125 -47.84375 28.007812 -47.085938 28.875 -46.109375 C 29.738281 -45.140625 30.351562 -44.101562 30.71875 -43 C 31.09375 -41.90625 31.320312 -40.914062 31.40625 -40.03125 C 31.59375 -37.945312 31.253906 -36.203125 30.390625 -34.796875 C 29.535156 -33.390625 28.5 -32.628906 27.28125 -32.515625 C 26.207031 -32.421875 25.628906 -32.816406 25.546875 -33.703125 C 25.421875 -35.078125 24.988281 -36.242188 24.25 -37.203125 C 23.507812 -38.160156 22.117188 -38.550781 20.078125 -38.375 C 17.910156 -38.175781 16.394531 -37.46875 15.53125 -36.25 C 14.664062 -35.039062 14.296875 -33.769531 14.421875 -32.4375 C 14.515625 -31.382812 14.863281 -30.492188 15.46875 -29.765625 C 16.082031 -29.046875 16.8125 -28.535156 17.65625 -28.234375 C 19.320312 -28.390625 20.75 -28.625 21.9375 -28.9375 C 23.125 -29.257812 24.160156 -29.460938 25.046875 -29.546875 C 25.992188 -29.628906 26.539062 -28.859375 26.6875 -27.234375 C 26.988281 -23.898438 24.632812 -22.003906 19.625 -21.546875 C 18.800781 -21.472656 17.9375 -21.507812 17.03125 -21.65625 C 16.132812 -21.8125 15.203125 -22.15625 14.234375 -22.6875 C 13.378906 -22.40625 12.726562 -21.832031 12.28125 -20.96875 C 11.832031 -20.101562 11.648438 -19.21875 11.734375 -18.3125 C 11.859375 -16.882812 12.757812 -15.828125 14.4375 -15.140625 C 16.125 -14.453125 18.472656 -14.242188 21.484375 -14.515625 C 23.898438 -14.734375 26.0625 -15.328125 27.96875 -16.296875 C 29.882812 -17.273438 31.289062 -18.582031 32.1875 -20.21875 C 32.476562 -20.75 32.894531 -20.960938 33.4375 -20.859375 C 33.976562 -20.765625 34.441406 -20.523438 34.828125 -20.140625 C 35.210938 -19.753906 35.320312 -19.34375 35.15625 -18.90625 C 33.039062 -13.457031 30.164062 -9.132812 26.53125 -5.9375 C 22.90625 -2.75 18.796875 -0.945312 14.203125 -0.53125 Z M 14.203125 -0.53125 "/></g></g></g><g fill="#f6f1e3" fill-opacity="1"><g transform="translate(135.7494, 213.656863)"><g><path d="M 27.796875 -19.8125 C 28.015625 -20.21875 28.398438 -20.390625 28.953125 -20.328125 C 29.515625 -20.273438 30.003906 -20.085938 30.421875 -19.765625 C 30.847656 -19.453125 30.96875 -19.035156 30.78125 -18.515625 C 30.300781 -17.203125 29.65625 -15.832031 28.84375 -14.40625 C 28.03125 -12.988281 26.960938 -11.769531 25.640625 -10.75 C 24.316406 -9.726562 22.628906 -9.125 20.578125 -8.9375 C 19.503906 -8.84375 18.5 -9.066406 17.5625 -9.609375 C 16.21875 -7.222656 14.707031 -5.191406 13.03125 -3.515625 C 11.351562 -1.847656 9.554688 -0.925781 7.640625 -0.75 C 5.972656 -0.601562 4.554688 -1 3.390625 -1.9375 C 2.222656 -2.882812 1.320312 -4.171875 0.6875 -5.796875 C 0.0625 -7.429688 -0.328125 -9.257812 -0.484375 -11.28125 C -0.648438 -13.300781 -0.566406 -15.300781 -0.234375 -17.28125 C -0.00390625 -18.945312 0.332031 -20.640625 0.78125 -22.359375 C 1.226562 -24.078125 1.765625 -25.671875 2.390625 -27.140625 C 3.015625 -28.609375 3.695312 -29.796875 4.4375 -30.703125 C 5.175781 -31.617188 5.984375 -32.113281 6.859375 -32.1875 C 7.484375 -32.25 7.976562 -32.109375 8.34375 -31.765625 C 8.71875 -31.421875 8.945312 -30.785156 9.03125 -29.859375 C 9.132812 -28.691406 9.007812 -27.394531 8.65625 -25.96875 C 8.300781 -24.550781 7.957031 -23.117188 7.625 -21.671875 C 7.289062 -20.234375 7.179688 -18.890625 7.296875 -17.640625 C 7.398438 -16.472656 7.773438 -15.5625 8.421875 -14.90625 C 9.078125 -14.25 10.054688 -13.984375 11.359375 -14.109375 C 12.691406 -14.222656 13.6875 -14.601562 14.34375 -15.25 C 15 -15.90625 15.457031 -16.472656 15.71875 -16.953125 C 15.40625 -17.890625 15.140625 -18.832031 14.921875 -19.78125 C 14.710938 -20.738281 14.566406 -21.710938 14.484375 -22.703125 C 14.316406 -24.546875 14.378906 -26.257812 14.671875 -27.84375 C 14.972656 -29.425781 15.550781 -30.726562 16.40625 -31.75 C 17.269531 -32.78125 18.410156 -33.363281 19.828125 -33.5 C 21.578125 -33.65625 22.742188 -33.019531 23.328125 -31.59375 C 23.921875 -30.175781 24 -28.160156 23.5625 -25.546875 C 23.125 -22.941406 22.195312 -19.914062 20.78125 -16.46875 C 21.4375 -16.269531 22.203125 -16.207031 23.078125 -16.28125 C 23.992188 -16.363281 24.847656 -16.6875 25.640625 -17.25 C 26.441406 -17.8125 27.160156 -18.664062 27.796875 -19.8125 Z M 27.796875 -19.8125 "/></g></g></g><g fill="#f6f1e3" fill-opacity="1"><g transform="translate(163.67376, 211.12441)"><g><path d="M 11.78125 -1.0625 C 9.269531 -0.84375 7.15625 -1.222656 5.4375 -2.203125 C 3.726562 -3.179688 2.40625 -4.5625 1.46875 -6.34375 C 0.53125 -8.132812 -0.0234375 -10.144531 -0.203125 -12.375 C -0.390625 -14.613281 -0.210938 -16.882812 0.328125 -19.1875 C 0.878906 -21.5 1.78125 -23.644531 3.03125 -25.625 C 4.289062 -27.613281 5.878906 -29.257812 7.796875 -30.5625 C 9.710938 -31.875 11.945312 -32.648438 14.5 -32.890625 C 16.46875 -33.066406 18.097656 -32.84375 19.390625 -32.21875 C 20.691406 -31.59375 21.6875 -30.703125 22.375 -29.546875 C 23.070312 -28.390625 23.484375 -27.125 23.609375 -25.75 C 23.742188 -24.238281 23.460938 -22.695312 22.765625 -21.125 C 22.066406 -19.550781 21.007812 -18.203125 19.59375 -17.078125 C 18.175781 -15.960938 16.445312 -15.3125 14.40625 -15.125 C 13.519531 -15.039062 12.65625 -15.023438 11.8125 -15.078125 C 10.976562 -15.128906 10.1875 -15.332031 9.4375 -15.6875 C 9.207031 -15.800781 8.972656 -15.789062 8.734375 -15.65625 C 8.492188 -15.53125 8.394531 -15.253906 8.4375 -14.828125 C 8.53125 -13.753906 9.238281 -12.988281 10.5625 -12.53125 C 11.882812 -12.082031 13.445312 -11.941406 15.25 -12.109375 C 17.375 -12.304688 19.523438 -13.046875 21.703125 -14.328125 C 23.878906 -15.617188 25.582031 -17.421875 26.8125 -19.734375 C 27.09375 -20.265625 27.515625 -20.476562 28.078125 -20.375 C 28.640625 -20.28125 29.113281 -20.039062 29.5 -19.65625 C 29.894531 -19.269531 29.988281 -18.859375 29.78125 -18.421875 C 27.476562 -13.078125 24.804688 -8.929688 21.765625 -5.984375 C 18.734375 -3.035156 15.40625 -1.394531 11.78125 -1.0625 Z M 12.34375 -19.671875 C 13.5625 -19.785156 14.476562 -20.257812 15.09375 -21.09375 C 15.71875 -21.9375 15.992188 -22.75 15.921875 -23.53125 C 15.859375 -24.25 15.5625 -24.835938 15.03125 -25.296875 C 14.507812 -25.753906 13.769531 -25.9375 12.8125 -25.84375 C 11.601562 -25.738281 10.675781 -25.273438 10.03125 -24.453125 C 9.382812 -23.640625 9.097656 -22.8125 9.171875 -21.96875 C 9.234375 -21.3125 9.53125 -20.742188 10.0625 -20.265625 C 10.59375 -19.785156 11.351562 -19.585938 12.34375 -19.671875 Z M 12.34375 -19.671875 "/></g></g></g><g fill="#f6f1e3" fill-opacity="1"><g transform="translate(190.596358, 208.682807)"><g><path d="M 3.953125 -0.359375 C 2.492188 -0.222656 1.328125 -0.554688 0.453125 -1.359375 C -0.421875 -2.160156 -0.921875 -3.210938 -1.046875 -4.515625 C -1.171875 -5.972656 -1.164062 -7.8125 -1.03125 -10.03125 C -0.894531 -12.25 -0.585938 -14.664062 -0.109375 -17.28125 C 0.367188 -19.820312 0.941406 -22.203125 1.609375 -24.421875 C 2.273438 -26.640625 2.992188 -28.457031 3.765625 -29.875 C 4.535156 -31.300781 5.316406 -32.050781 6.109375 -32.125 C 6.941406 -32.195312 7.515625 -32.003906 7.828125 -31.546875 C 8.148438 -31.085938 8.335938 -30.546875 8.390625 -29.921875 C 8.503906 -28.710938 8.867188 -27.988281 9.484375 -27.75 C 10.097656 -27.507812 10.851562 -27.941406 11.75 -29.046875 C 12.820312 -30.265625 13.957031 -31.242188 15.15625 -31.984375 C 16.351562 -32.734375 17.632812 -33.171875 19 -33.296875 C 20.925781 -33.472656 22.398438 -33.039062 23.421875 -32 C 24.453125 -30.957031 25.039062 -29.640625 25.1875 -28.046875 C 25.28125 -26.960938 25.195312 -25.953125 24.9375 -25.015625 C 24.6875 -24.085938 24.429688 -23.179688 24.171875 -22.296875 C 23.921875 -21.410156 23.84375 -20.453125 23.9375 -19.421875 C 24.125 -17.316406 25.222656 -16.351562 27.234375 -16.53125 C 28.179688 -16.625 28.953125 -17.003906 29.546875 -17.671875 C 30.140625 -18.335938 30.707031 -19.15625 31.25 -20.125 C 31.539062 -20.65625 31.960938 -20.875 32.515625 -20.78125 C 33.078125 -20.6875 33.554688 -20.445312 33.953125 -20.0625 C 34.347656 -19.675781 34.441406 -19.265625 34.234375 -18.828125 C 33.859375 -18.117188 33.4375 -17.097656 32.96875 -15.765625 C 32.507812 -14.441406 31.9375 -13.019531 31.25 -11.5 C 30.570312 -9.988281 29.75 -8.523438 28.78125 -7.109375 C 27.8125 -5.703125 26.6875 -4.519531 25.40625 -3.5625 C 24.125 -2.601562 22.628906 -2.046875 20.921875 -1.890625 C 18.953125 -1.710938 17.515625 -2.234375 16.609375 -3.453125 C 15.703125 -4.671875 15.164062 -6.15625 15 -7.90625 C 14.851562 -9.5 14.929688 -11.035156 15.234375 -12.515625 C 15.546875 -14.003906 15.867188 -15.363281 16.203125 -16.59375 C 16.535156 -17.820312 16.660156 -18.851562 16.578125 -19.6875 C 16.515625 -20.394531 16.25 -20.914062 15.78125 -21.25 C 15.3125 -21.59375 14.722656 -21.734375 14.015625 -21.671875 C 12.796875 -21.554688 11.71875 -20.941406 10.78125 -19.828125 C 9.851562 -18.710938 9.148438 -17.3125 8.671875 -15.625 C 8.203125 -13.945312 8.050781 -12.171875 8.21875 -10.296875 L 8.46875 -7.46875 C 8.570312 -6.425781 8.539062 -5.378906 8.375 -4.328125 C 8.21875 -3.273438 7.800781 -2.382812 7.125 -1.65625 C 6.457031 -0.925781 5.398438 -0.492188 3.953125 -0.359375 Z M 3.953125 -0.359375 "/></g></g></g><g fill="#f6f1e3" fill-opacity="1"><g transform="translate(221.964307, 205.838056)"><g><path d="M 6.3125 -0.578125 C 3.976562 -0.359375 2.191406 -0.921875 0.953125 -2.265625 C -0.273438 -3.609375 -0.992188 -5.4375 -1.203125 -7.75 C -1.410156 -10.0625 -1.179688 -12.597656 -0.515625 -15.359375 C -0.109375 -16.992188 0.34375 -18.757812 0.84375 -20.65625 C 1.34375 -22.550781 1.894531 -24.617188 2.5 -26.859375 C 1.570312 -26.773438 0.84375 -26.953125 0.3125 -27.390625 C -0.207031 -27.835938 -0.566406 -28.375 -0.765625 -29 C -0.960938 -29.625 -1.007812 -30.1875 -0.90625 -30.6875 C -0.8125 -31.1875 -0.578125 -31.453125 -0.203125 -31.484375 C 1.640625 -31.648438 3.035156 -32.289062 3.984375 -33.40625 C 4.929688 -34.519531 5.566406 -35.664062 5.890625 -36.84375 C 6.460938 -38.75 7.082031 -39.96875 7.75 -40.5 C 8.425781 -41.039062 9.15625 -41.347656 9.9375 -41.421875 C 11.113281 -41.523438 11.890625 -41.097656 12.265625 -40.140625 C 12.648438 -39.191406 12.453125 -37.695312 11.671875 -35.65625 C 11.296875 -34.613281 11.109375 -33.828125 11.109375 -33.296875 C 11.117188 -32.773438 11.421875 -32.539062 12.015625 -32.59375 L 15.265625 -32.890625 C 15.679688 -32.929688 15.976562 -32.660156 16.15625 -32.078125 C 16.332031 -31.503906 16.378906 -30.832031 16.296875 -30.0625 C 16.222656 -29.300781 16.015625 -28.609375 15.671875 -27.984375 C 15.328125 -27.367188 14.84375 -27.035156 14.21875 -26.984375 C 12.289062 -26.804688 10.875 -26.601562 9.96875 -26.375 C 9.070312 -26.144531 8.460938 -25.722656 8.140625 -25.109375 C 7.816406 -24.492188 7.515625 -23.453125 7.234375 -21.984375 C 6.753906 -19.753906 7 -18.03125 7.96875 -16.8125 C 8.945312 -15.59375 10.351562 -15.066406 12.1875 -15.234375 C 13.445312 -15.347656 14.539062 -15.734375 15.46875 -16.390625 C 16.394531 -17.046875 17.125 -17.882812 17.65625 -18.90625 C 17.957031 -19.4375 18.375 -19.648438 18.90625 -19.546875 C 19.4375 -19.453125 19.898438 -19.210938 20.296875 -18.828125 C 20.691406 -18.441406 20.800781 -18.03125 20.625 -17.59375 C 20.3125 -16.851562 19.898438 -15.828125 19.390625 -14.515625 C 18.890625 -13.203125 18.265625 -11.773438 17.515625 -10.234375 C 16.773438 -8.691406 15.875 -7.21875 14.8125 -5.8125 C 13.75 -4.414062 12.515625 -3.234375 11.109375 -2.265625 C 9.710938 -1.296875 8.113281 -0.734375 6.3125 -0.578125 Z M 6.3125 -0.578125 "/></g></g></g><g fill="#f6f1e3" fill-opacity="1"><g transform="translate(239.745734, 204.225464)"><g><path d="M 5.328125 -0.484375 C 3.109375 -0.285156 1.503906 -0.757812 0.515625 -1.90625 C -0.460938 -3.050781 -1.035156 -4.539062 -1.203125 -6.375 C -1.347656 -7.96875 -1.304688 -9.722656 -1.078125 -11.640625 C -0.859375 -13.554688 -0.515625 -15.441406 -0.046875 -17.296875 C 1.523438 -23.578125 2.863281 -28.851562 3.96875 -33.125 C 5.082031 -37.394531 6.234375 -40.644531 7.421875 -42.875 C 8.609375 -45.101562 10.035156 -46.296875 11.703125 -46.453125 C 12.992188 -46.566406 13.847656 -46.148438 14.265625 -45.203125 C 14.691406 -44.253906 14.515625 -42.753906 13.734375 -40.703125 C 12.335938 -37.078125 11.15625 -33.738281 10.1875 -30.6875 C 9.21875 -27.632812 8.5 -24.757812 8.03125 -22.0625 C 7.820312 -20.820312 7.691406 -19.640625 7.640625 -18.515625 C 7.585938 -17.398438 7.800781 -16.515625 8.28125 -15.859375 C 8.757812 -15.210938 9.628906 -14.945312 10.890625 -15.0625 C 11.960938 -15.15625 12.878906 -15.519531 13.640625 -16.15625 C 14.410156 -16.800781 15.082031 -17.65625 15.65625 -18.71875 C 15.945312 -19.25 16.367188 -19.460938 16.921875 -19.359375 C 17.484375 -19.265625 17.960938 -19.023438 18.359375 -18.640625 C 18.753906 -18.253906 18.847656 -17.84375 18.640625 -17.40625 C 18.265625 -16.707031 17.84375 -15.691406 17.375 -14.359375 C 16.914062 -13.035156 16.34375 -11.613281 15.65625 -10.09375 C 14.976562 -8.570312 14.15625 -7.101562 13.1875 -5.6875 C 12.21875 -4.28125 11.09375 -3.097656 9.8125 -2.140625 C 8.53125 -1.191406 7.035156 -0.640625 5.328125 -0.484375 Z M 5.328125 -0.484375 "/></g></g></g><g fill="#f6f1e3" fill-opacity="1"><g transform="translate(255.523618, 202.794572)"><g><path d="M 30.984375 -20.109375 C 31.210938 -20.503906 31.601562 -20.675781 32.15625 -20.625 C 32.707031 -20.570312 33.195312 -20.382812 33.625 -20.0625 C 34.0625 -19.75 34.179688 -19.328125 33.984375 -18.796875 C 33.222656 -16.796875 32.5 -14.835938 31.8125 -12.921875 C 31.125 -11.003906 30.363281 -9.25 29.53125 -7.65625 C 28.707031 -6.070312 27.753906 -4.773438 26.671875 -3.765625 C 25.585938 -2.765625 24.296875 -2.195312 22.796875 -2.0625 C 21.867188 -1.976562 21.097656 -2.378906 20.484375 -3.265625 C 19.523438 1.171875 18.429688 4.75 17.203125 7.46875 C 15.984375 10.195312 14.53125 12.222656 12.84375 13.546875 C 11.15625 14.878906 9.144531 15.648438 6.8125 15.859375 C 3.507812 16.160156 0.875 15.523438 -1.09375 13.953125 C -3.070312 12.378906 -4.195312 10.09375 -4.46875 7.09375 C -4.613281 5.507812 -4.503906 4.117188 -4.140625 2.921875 C -3.785156 1.734375 -3.347656 0.78125 -2.828125 0.0625 C -2.304688 -0.65625 -1.820312 -1.128906 -1.375 -1.359375 C -0.9375 -1.597656 -0.679688 -1.546875 -0.609375 -1.203125 C -0.304688 0.316406 0.453125 1.53125 1.671875 2.4375 C 2.890625 3.34375 4.453125 3.6875 6.359375 3.46875 C 8.203125 3.257812 9.859375 2.570312 11.328125 1.40625 C 12.796875 0.238281 13.960938 -1.242188 14.828125 -3.046875 C 15.703125 -4.859375 16.15625 -6.773438 16.1875 -8.796875 C 16.21875 -9.515625 15.992188 -9.890625 15.515625 -9.921875 C 15.046875 -9.960938 14.679688 -9.578125 14.421875 -8.765625 C 13.765625 -6.597656 12.742188 -4.835938 11.359375 -3.484375 C 9.972656 -2.140625 8.25 -1.375 6.1875 -1.1875 C 4.519531 -1.039062 3.019531 -1.460938 1.6875 -2.453125 C 0.363281 -3.453125 -0.40625 -5.140625 -0.625 -7.515625 C -0.707031 -8.472656 -0.753906 -9.8125 -0.765625 -11.53125 C -0.773438 -13.257812 -0.554688 -15.175781 -0.109375 -17.28125 C 0.921875 -22.007812 2.066406 -25.648438 3.328125 -28.203125 C 4.597656 -30.765625 6.109375 -32.125 7.859375 -32.28125 C 9.160156 -32.394531 9.890625 -31.613281 10.046875 -29.9375 C 10.160156 -28.601562 10.035156 -27.226562 9.671875 -25.8125 C 9.316406 -24.394531 8.96875 -23.003906 8.625 -21.640625 C 8.289062 -20.285156 8.179688 -18.984375 8.296875 -17.734375 C 8.378906 -16.859375 8.617188 -16.179688 9.015625 -15.703125 C 9.421875 -15.234375 10.148438 -15.046875 11.203125 -15.140625 C 12.578125 -15.265625 13.644531 -15.773438 14.40625 -16.671875 C 15.164062 -17.566406 15.726562 -18.765625 16.09375 -20.265625 C 17.019531 -24.484375 18.050781 -27.738281 19.1875 -30.03125 C 20.320312 -32.320312 21.679688 -33.539062 23.265625 -33.6875 C 24.191406 -33.769531 24.910156 -33.625 25.421875 -33.25 C 25.941406 -32.875 26.242188 -32.179688 26.328125 -31.171875 C 26.453125 -29.878906 26.1875 -28.285156 25.53125 -26.390625 C 24.882812 -24.503906 24.164062 -21.925781 23.375 -18.65625 C 23.03125 -16.851562 23.109375 -15.628906 23.609375 -14.984375 C 24.109375 -14.335938 24.710938 -14.046875 25.421875 -14.109375 C 26.390625 -14.191406 27.363281 -14.867188 28.34375 -16.140625 C 29.320312 -17.410156 30.203125 -18.734375 30.984375 -20.109375 Z M 30.984375 -20.109375 "/></g></g></g><g clip-path="url(#f8c4f8d2ac)"><path fill="#f6f1e3" d="M 167.414062 236.417969 C 153.511719 238.976562 151.4375 241.050781 148.878906 254.949219 C 146.320312 241.050781 144.246094 238.976562 130.347656 236.417969 C 144.246094 233.859375 146.320312 231.785156 148.878906 217.886719 C 151.4375 231.785156 153.511719 233.859375 167.414062 236.417969 Z M 167.414062 236.417969 " fill-opacity="1" fill-rule="nonzero"/></g><g clip-path="url(#2f99c6d3f2)"><path fill="#f6f1e3" d="M 209.15625 254.953125 C 199.863281 256.664062 198.476562 258.050781 196.765625 267.34375 C 195.054688 258.050781 193.667969 256.664062 184.375 254.953125 C 193.667969 253.242188 195.054688 251.855469 196.765625 242.5625 C 198.476562 251.855469 199.863281 253.242188 209.15625 254.953125 Z M 209.15625 254.953125 " fill-opacity="1" fill-rule="nonzero"/></g><g clip-path="url(#2b44fb47c4)"><path fill="#f6f1e3" d="M 244.484375 236.421875 C 238.589844 237.507812 237.710938 238.386719 236.625 244.285156 C 235.539062 238.386719 234.65625 237.507812 228.761719 236.421875 C 234.65625 235.335938 235.539062 234.453125 236.625 228.558594 C 237.710938 234.453125 238.589844 235.335938 244.484375 236.421875 Z M 244.484375 236.421875 " fill-opacity="1" fill-rule="nonzero"/></g><g clip-path="url(#8e36a05833)"><path fill="#f6f1e3" d="M 244.484375 131.703125 C 238.589844 132.789062 237.710938 133.667969 236.625 139.566406 C 235.539062 133.667969 234.65625 132.789062 228.761719 131.703125 C 234.65625 130.617188 235.539062 129.738281 236.625 123.839844 C 237.710938 129.738281 238.589844 130.617188 244.484375 131.703125 Z M 244.484375 131.703125 " fill-opacity="1" fill-rule="nonzero"/></g><g clip-path="url(#35f265bb85)"><path fill="#f6f1e3" d="M 164.609375 131.703125 C 158.710938 132.789062 157.832031 133.667969 156.746094 139.566406 C 155.660156 133.667969 154.78125 132.789062 148.882812 131.703125 C 154.78125 130.617188 155.660156 129.738281 156.746094 123.839844 C 157.832031 129.738281 158.710938 130.617188 164.609375 131.703125 Z M 164.609375 131.703125 " fill-opacity="1" fill-rule="nonzero"/></g><g clip-path="url(#977da37205)"><path fill="#f6f1e3" d="M 204.628906 113.199219 C 196.648438 114.667969 195.460938 115.855469 193.988281 123.835938 C 192.519531 115.855469 191.332031 114.667969 183.351562 113.199219 C 191.332031 111.726562 192.519531 110.539062 193.988281 102.558594 C 195.460938 110.539062 196.648438 111.726562 204.628906 113.199219 Z M 204.628906 113.199219 " fill-opacity="1" fill-rule="nonzero"/></g></svg>